<svg xmlns="http://www.w3.org/2000/svg" viewBox="0 0 420 780" fill="none">
  <defs>
    <linearGradient id="ag" x1="0%" y1="0%" x2="100%" y2="100%">
      <stop offset="0%" stop-color="#8B5CF6"/>
      <stop offset="100%" stop-color="#06B6D4"/>
    </linearGradient>
    <clipPath id="mc"><rect x="10" y="10" width="400" height="760" rx="24"/></clipPath>
    <filter id="mds"><feDropShadow dx="0" dy="4" stdDeviation="8" flood-color="#000" flood-opacity="0.4"/></filter>
  </defs>
  
  <!-- Phone frame -->
  <rect width="420" height="780" fill="#07070c" rx="28"/>
  <rect x="10" y="10" width="400" height="760" rx="24" fill="#0b0b10" stroke="#1e1e2e" stroke-width="1" filter="url(#mds)"/>
  
  <g clip-path="url(#mc)">
    <!-- Status bar -->
    <rect x="10" y="10" width="400" height="36" fill="#0b0b10"/>
    <text x="210" y="30" text-anchor="middle" font-family="'SF Pro','Inter',sans-serif" font-size="12" font-weight="600" fill="#e8e6f0">15:42</text>
    
    <!-- Chat header with hamburger -->
    <rect x="10" y="46" width="400" height="48" fill="#0b0b10"/>
    <line x1="10" y1="94" x2="410" y2="94" stroke="#16161f" stroke-width="1"/>
    
    <!-- Hamburger menu icon -->
    <g transform="translate(34, 70)">
      <rect x="-8" y="-8" width="32" height="32" rx="8" fill="#1c1c28" stroke="#1e1e2e" stroke-width="0.5"/>
      <line x1="-3" y1="-4" x2="9" y2="-4" stroke="#8b8a9e" stroke-width="1.5" stroke-linecap="round"/>
      <line x1="-3" y1="0" x2="9" y2="0" stroke="#8b8a9e" stroke-width="1.5" stroke-linecap="round"/>
      <line x1="-3" y1="4" x2="9" y2="4" stroke="#8b8a9e" stroke-width="1.5" stroke-linecap="round"/>
    </g>
    
    <text x="68" y="66" font-family="'Inter',sans-serif" font-size="14" fill="#56556a">#</text>
    <text x="82" y="66" font-family="'Inter',sans-serif" font-size="14" font-weight="600" fill="#e8e6f0">genel-sohbet</text>
    
    <!-- Member list toggle -->
    <g transform="translate(380, 70)">
      <text x="0" y="0" text-anchor="middle" font-family="'Inter',sans-serif" font-size="16" fill="#8b8a9e">👥</text>
    </g>
    
    <!-- Messages -->
    <!-- Msg 1 -->
    <g transform="translate(30, 118)">
      <circle cx="16" cy="16" r="16" fill="url(#ag)"/>
      <text x="11" y="20" font-family="'Inter',sans-serif" font-size="7" font-weight="700" fill="white">DB</text>
      <g transform="translate(40, 0)">
        <text x="0" y="12" font-family="'Inter',sans-serif" font-size="13" font-weight="600" fill="#e8e6f0">
          DarkBot <tspan font-size="7" fill="#8B5CF6" font-weight="700"> BOT</tspan>
        </text>
        <text x="0" y="30" font-family="'Inter',sans-serif" font-size="13" fill="#e8e6f0">🎉 <tspan font-weight="700">Hoş Geldiniz!</tspan></text>
        <text x="0" y="48" font-family="'Inter',sans-serif" font-size="12" fill="#e8e6f0" opacity="0.8">Resmi topluluk sunucusu</text>
        <rect x="0" y="58" width="46" height="22" rx="6" fill="#8B5CF620" stroke="#8B5CF640" stroke-width="0.5"/>
        <text x="23" y="73" text-anchor="middle" font-family="'Inter',sans-serif" font-size="11" fill="#8B5CF6">🎉 3</text>
      </g>
    </g>
    
    <!-- Msg 2 -->
    <g transform="translate(30, 218)">
      <circle cx="16" cy="16" r="16" fill="#2563EB"/>
      <text x="11" y="20" font-family="'Inter',sans-serif" font-size="7" font-weight="700" fill="white">AK</text>
      <g transform="translate(40, 0)">
        <text x="0" y="12" font-family="'Inter',sans-serif" font-size="13" font-weight="600" fill="#e8e6f0">Ahmet K.</text>
        <text x="0" y="32" font-family="'Inter',sans-serif" font-size="13" fill="#e8e6f0">Mobilde de harika çalışıyor! 📱</text>
      </g>
    </g>
    
    <!-- Msg 3 -->
    <g transform="translate(30, 280)">
      <circle cx="16" cy="16" r="16" fill="#059669"/>
      <text x="11" y="20" font-family="'Inter',sans-serif" font-size="7" font-weight="700" fill="white">ZY</text>
      <g transform="translate(40, 0)">
        <text x="0" y="12" font-family="'Inter',sans-serif" font-size="13" font-weight="600" fill="#e8e6f0">Zeynep Y.</text>
        <text x="0" y="32" font-family="'Inter',sans-serif" font-size="13" fill="#e8e6f0">Responsive design mükemmel 💜</text>
      </g>
    </g>
    
    <!-- Msg 4 -->
    <g transform="translate(30, 342)">
      <circle cx="16" cy="16" r="16" fill="url(#ag)"/>
      <text x="11" y="20" font-family="'Inter',sans-serif" font-size="7" font-weight="700" fill="white">BT</text>
      <g transform="translate(40, 0)">
        <text x="0" y="12" font-family="'Inter',sans-serif" font-size="13" font-weight="600" fill="#e8e6f0">Bilal TM</text>
        <text x="0" y="32" font-family="'Inter',sans-serif" font-size="13" fill="#e8e6f0">Her cihazda çalışsın diye tasarladık 🚀</text>
        <rect x="0" y="44" width="42" height="22" rx="6" fill="#16161f" stroke="#1e1e2e" stroke-width="0.5"/>
        <text x="21" y="59" text-anchor="middle" font-family="'Inter',sans-serif" font-size="11" fill="#8b8a9e">🚀 4</text>
        <rect x="50" y="44" width="42" height="22" rx="6" fill="#8B5CF620" stroke="#8B5CF640" stroke-width="0.5"/>
        <text x="71" y="59" text-anchor="middle" font-family="'Inter',sans-serif" font-size="11" fill="#8B5CF6">🔥 2</text>
      </g>
    </g>
    
    <!-- Msg 5 -->
    <g transform="translate(30, 440)">
      <circle cx="16" cy="16" r="16" fill="#DC2626"/>
      <text x="11" y="20" font-family="'Inter',sans-serif" font-size="7" font-weight="700" fill="white">EÖ</text>
      <g transform="translate(40, 0)">
        <text x="0" y="12" font-family="'Inter',sans-serif" font-size="13" font-weight="600" fill="#e8e6f0">Elif Ö.</text>
        <text x="0" y="32" font-family="'Inter',sans-serif" font-size="13" fill="#e8e6f0">Socket.IO ile anlık mesajlaşma çok hızlı!</text>
      </g>
    </g>
    
    <!-- Msg 6 - compact (same author follow up) -->
    <g transform="translate(70, 492)">
      <text x="0" y="12" font-family="'Inter',sans-serif" font-size="13" fill="#e8e6f0">Discord gibi ama daha güzel 🤩</text>
    </g>
    
    <!-- Typing -->
    <g transform="translate(30, 530)">
      <circle cx="4" cy="4" r="2" fill="#56556a" opacity="0.8"/>
      <circle cx="12" cy="4" r="2" fill="#56556a" opacity="0.5"/>
      <circle cx="20" cy="4" r="2" fill="#56556a" opacity="0.3"/>
      <text x="28" y="8" font-family="'Inter',sans-serif" font-size="11" fill="#56556a"><tspan fill="#8b8a9e" font-weight="500">Ahmet K.</tspan> yazıyor...</text>
    </g>
    
    <!-- Input -->
    <g transform="translate(24, 560)">
      <rect x="0" y="0" width="372" height="44" rx="12" fill="#1c1c28" stroke="#1e1e2e" stroke-width="1"/>
      <text x="16" y="27" font-family="'Inter',sans-serif" font-size="13" fill="#56556a" opacity="0.5">Mesaj gönder...</text>
      <text x="336" y="27" font-family="'Inter',sans-serif" font-size="16" fill="#56556a">😊</text>
    </g>
    
    <!-- ===== Drawer Overlay (semi-transparent) ===== -->
    <rect x="10" y="10" width="400" height="760" fill="#000000" opacity="0.45"/>
    
    <!-- ===== Sidebar Drawer ===== -->
    <rect x="10" y="10" width="300" height="760" fill="#0b0b10"/>
    
    <!-- Drawer: Server Rail -->
    <rect x="10" y="10" width="60" height="760" fill="#0b0b10"/>
    
    <!-- Home -->
    <g transform="translate(40, 42)">
      <rect x="-18" y="-18" width="36" height="36" rx="18" fill="#16161f"/>
      <g transform="translate(-8, -10) scale(0.6)">
        <path d="M6 14c0-1 .8-2 1.8-2 2.2 0 5.2 1.5 6.2 4.5 1-3 4-4.5 6.2-4.5 1 0 1.8 1 1.8 2 0 6-3 13-8 16C9 27 6 20 6 14z" fill="#8B5CF6"/>
      </g>
    </g>
    
    <rect x="22" y="68" width="36" height="1.5" rx="0.75" fill="#1e1e2e"/>
    
    <!-- Active server -->
    <g transform="translate(40, 94)">
      <rect x="1" y="-14" width="2.5" height="28" rx="1.25" fill="#e8e6f0"/>
      <rect x="-18" y="-18" width="36" height="36" rx="12" fill="#8B5CF6"/>
      <text x="0" y="5" text-anchor="middle" font-family="'Inter',sans-serif" font-size="9" font-weight="700" fill="white">DT</text>
    </g>
    
    <g transform="translate(40, 140)">
      <rect x="-18" y="-18" width="36" height="36" rx="18" fill="#16161f"/>
      <text x="0" y="5" text-anchor="middle" font-family="'Inter',sans-serif" font-size="9" font-weight="700" fill="#8b8a9e">GD</text>
    </g>
    
    <!-- Drawer: Channel List -->
    <rect x="70" y="10" width="240" height="760" fill="#111118"/>
    <line x1="310" y1="10" x2="310" y2="770" stroke="#16161f" stroke-width="0.5"/>
    
    <!-- Server name -->
    <text x="86" y="42" font-family="'Inter',sans-serif" font-size="14" font-weight="600" fill="#e8e6f0">DarkCord Topluluk</text>
    <line x1="70" y1="54" x2="310" y2="54" stroke="#16161f" stroke-width="0.5"/>
    
    <!-- Channels -->
    <text x="86" y="76" font-family="'Inter',sans-serif" font-size="9" font-weight="700" fill="#56556a" letter-spacing="1">▾ BİLGİ</text>
    <text x="86" y="96" font-family="'Inter',sans-serif" font-size="13" fill="#8b8a9e"># duyurular</text>
    <text x="86" y="116" font-family="'Inter',sans-serif" font-size="13" fill="#8b8a9e"># kurallar</text>
    
    <text x="86" y="146" font-family="'Inter',sans-serif" font-size="9" font-weight="700" fill="#56556a" letter-spacing="1">▾ GENEL</text>
    <rect x="78" y="154" width="216" height="26" rx="5" fill="#2a2a3a"/>
    <text x="86" y="172" font-family="'Inter',sans-serif" font-size="13" font-weight="500" fill="#e8e6f0"># genel-sohbet</text>
    <text x="86" y="198" font-family="'Inter',sans-serif" font-size="13" fill="#8b8a9e"># medya-paylaşım</text>
    <text x="86" y="218" font-family="'Inter',sans-serif" font-size="13" fill="#8b8a9e"># bot-komutları</text>
    
    <text x="86" y="248" font-family="'Inter',sans-serif" font-size="9" font-weight="700" fill="#56556a" letter-spacing="1">▾ GELİŞTİRME</text>
    <text x="86" y="268" font-family="'Inter',sans-serif" font-size="13" fill="#8b8a9e"># frontend</text>
    <text x="86" y="288" font-family="'Inter',sans-serif" font-size="13" fill="#8b8a9e"># backend</text>
    
    <!-- User panel -->
    <rect x="70" y="714" width="240" height="56" fill="#16161f" opacity="0.5"/>
    <line x1="70" y1="714" x2="310" y2="714" stroke="#16161f" stroke-width="0.5"/>
    <g transform="translate(90, 740)">
      <circle cx="0" cy="0" r="14" fill="url(#ag)"/>
      <text x="-5" y="4" font-family="'Inter',sans-serif" font-size="8" font-weight="700" fill="white">BT</text>
      <circle cx="9" cy="9" r="4" fill="#16161f"/>
      <circle cx="9" cy="9" r="2.5" fill="#10B981"/>
    </g>
    <text x="112" y="736" font-family="'Inter',sans-serif" font-size="12" font-weight="600" fill="#e8e6f0">Bilal TM</text>
    <text x="112" y="750" font-family="'Inter',sans-serif" font-size="10" fill="#56556a">DarkCord Pompa</text>
  </g>
  
  <!-- Label -->
  <g transform="translate(210, 786)">
    <text x="0" y="0" text-anchor="middle" font-family="'SF Mono','JetBrains Mono',monospace" font-size="10" fill="#56556a">Mobile + Drawer</text>
  </g>
  
  <!-- Home indicator -->
  <rect x="155" y="748" width="110" height="4" rx="2" fill="#e8e6f0" opacity="0.15"/>
</svg>